<?xml version="1.0" encoding="utf-8"?>
<svg xmlns="http://www.w3.org/2000/svg" style="margin: auto; background: none; display: block; shape-rendering: auto;" width="289" height="90" preserveAspectRatio="xMidYMid">
<style type="text/css">
  text {
    text-anchor: middle; font-size: 80px; opacity: 0;
  }
</style>
<g style="transform-origin:144.5px 45px;transform:scale(1)">
<g transform="translate(144.5,45)">
  <g transform="translate(0,0)"><g class="path" style="transform: scale(0.91); transform-origin: -110.525px -4.28998px; animation: 1s linear -0.875s infinite normal forwards running breath-564af92c-530f-4454-b6e3-b8daa6b05f13;"><path d="M21.88-24.53L21.88 0L6.37 0L6.37-56.25L21.88-56.25L21.88-31.68L42.42-31.68L42.42-56.25L57.93-56.25L57.93 0L42.42 0L42.42-24.53L21.88-24.53" fill="#ffd80e" stroke="none" stroke-width="none" transform="translate(-142.67498779296875,23.835021057128905)" style="fill: rgb(255, 216, 14);"></path></g><g class="path" style="transform: scale(0.91); transform-origin: -51.25px 1.18002px; animation: 1s linear -0.75s infinite normal forwards running breath-564af92c-530f-4454-b6e3-b8daa6b05f13;"><path d="M116.60-22.66L116.60-22.66L116.60-22.66Q116.60-19.14 115.66-16.05L115.66-16.05L115.66-16.05Q114.73-12.97 113.07-10.35L113.07-10.35L113.07-10.35Q111.41-7.73 109.06-5.64L109.06-5.64L109.06-5.64Q106.72-3.55 103.93-2.11L103.93-2.11L103.93-2.11Q101.13-0.66 97.95 0.12L97.95 0.12L97.95 0.12Q94.77 0.90 91.41 0.90L91.41 0.90L91.41 0.90Q88.05 0.90 84.88 0.12L84.88 0.12L84.88 0.12Q81.72-0.66 78.93-2.11L78.93-2.11L78.93-2.11Q76.13-3.55 73.79-5.64L73.79-5.64L73.79-5.64Q71.45-7.73 69.79-10.35L69.79-10.35L69.79-10.35Q68.13-12.97 67.19-16.07L67.19-16.07L67.19-16.07Q66.25-19.18 66.25-22.66L66.25-22.66L66.25-22.66Q66.25-26.13 67.19-29.24L67.19-29.24L67.19-29.24Q68.13-32.34 69.79-34.96L69.79-34.96L69.79-34.96Q71.45-37.58 73.79-39.67L73.79-39.67L73.79-39.67Q76.13-41.76 78.93-43.20L78.93-43.20L78.93-43.20Q81.72-44.65 84.88-45.43L84.88-45.43L84.88-45.43Q88.05-46.21 91.41-46.21L91.41-46.21L91.41-46.21Q94.77-46.21 97.95-45.43L97.95-45.43L97.95-45.43Q101.13-44.65 103.93-43.20L103.93-43.20L103.93-43.20Q106.72-41.76 109.06-39.67L109.06-39.67L109.06-39.67Q111.41-37.58 113.07-34.96L113.07-34.96L113.07-34.96Q114.73-32.34 115.66-29.24L115.66-29.24L115.66-29.24Q116.60-26.13 116.60-22.66zM103.16-22.66L103.16-22.66L103.16-22.66Q103.16-24.53 102.95-26.62L102.95-26.62L102.95-26.62Q102.73-28.71 102.23-30.72L102.23-30.72L102.23-30.72Q101.72-32.73 100.84-34.59L100.84-34.59L100.84-34.59Q99.96-36.45 98.67-37.83L98.67-37.83L98.67-37.83Q97.38-39.22 95.59-40.06L95.59-40.06L95.59-40.06Q93.79-40.90 91.41-40.90L91.41-40.90L91.41-40.90Q89.14-40.90 87.38-40.04L87.38-40.04L87.38-40.04Q85.63-39.18 84.32-37.75L84.32-37.75L84.32-37.75Q83.01-36.33 82.13-34.45L82.13-34.45L82.13-34.45Q81.25-32.58 80.70-30.57L80.70-30.57L80.70-30.57Q80.16-28.55 79.92-26.50L79.92-26.50L79.92-26.50Q79.69-24.45 79.69-22.66L79.69-22.66L79.69-22.66Q79.69-20.86 79.92-18.81L79.92-18.81L79.92-18.81Q80.16-16.76 80.70-14.73L80.70-14.73L80.70-14.73Q81.25-12.70 82.13-10.84L82.13-10.84L82.13-10.84Q83.01-8.98 84.32-7.56L84.32-7.56L84.32-7.56Q85.63-6.13 87.38-5.27L87.38-5.27L87.38-5.27Q89.14-4.41 91.41-4.41L91.41-4.41L91.41-4.41Q93.75-4.41 95.55-5.25L95.55-5.25L95.55-5.25Q97.34-6.09 98.65-7.50L98.65-7.50L98.65-7.50Q99.96-8.91 100.82-10.74L100.82-10.74L100.82-10.74Q101.68-12.58 102.21-14.61L102.21-14.61L102.21-14.61Q102.73-16.64 102.95-18.71L102.95-18.71L102.95-18.71Q103.16-20.78 103.16-22.66" fill="#ffd80e" stroke="none" stroke-width="none" transform="translate(-142.67498779296875,23.835021057128905)" style="fill: rgb(255, 216, 14);"></path></g><g class="path" style="transform: scale(0.91); transform-origin: -5.77999px -7.02498px; animation: 1s linear -0.625s infinite normal forwards running breath-564af92c-530f-4454-b6e3-b8daa6b05f13;"><path d="M140.78-39.88L140.78 0L127.54 0L127.54-39.88L119.34-39.88L119.34-45.12L127.54-45.12L127.54-61.72L140.78-61.72L140.78-45.12L154.45-45.12L154.45-39.88L140.78-39.88" fill="#ffd80e" stroke="none" stroke-width="none" transform="translate(-142.67498779296875,23.835021057128905)" style="fill: rgb(255, 216, 14);"></path></g><g class="path" style="transform: scale(0.91); transform-origin: 36.755px -10.52px; animation: 1s linear -0.5s infinite normal forwards running breath-564af92c-530f-4454-b6e3-b8daa6b05f13;"><path d="M202.73-63.67L202.73-63.67L195.27-51.33L195.27-51.33Q195.16-52.81 194.73-54.75L194.73-54.75L194.73-54.75Q194.30-56.68 193.30-58.40L193.30-58.40L193.30-58.40Q192.30-60.12 190.57-61.31L190.57-61.31L190.57-61.31Q188.83-62.50 186.13-62.50L186.13-62.50L186.13-62.50Q183.36-62.50 181.68-61.41L181.68-61.41L181.68-61.41Q180-60.31 179.10-58.13L179.10-58.13L179.10-58.13Q178.20-55.94 177.89-52.70L177.89-52.70L177.89-52.70Q177.58-49.45 177.58-45.16L177.58-45.16L191.25-45.16L191.25-39.92L177.58-39.92L177.58 0L164.34 0L164.34-39.92L156.13-39.92L156.13-45.16L164.34-45.16L164.34-45.16Q164.34-51.37 165.66-55.82L165.66-55.82L165.66-55.82Q166.99-60.27 169.69-63.14L169.69-63.14L169.69-63.14Q172.38-66.02 176.46-67.36L176.46-67.36L176.46-67.36Q180.55-68.71 186.02-68.71L186.02-68.71L186.02-68.71Q189.30-68.71 191.89-68.26L191.89-68.26L191.89-68.26Q194.49-67.81 196.50-67.09L196.50-67.09L196.50-67.09Q198.52-66.37 200.04-65.47L200.04-65.47L200.04-65.47Q201.56-64.57 202.73-63.67" fill="#ffd80e" stroke="none" stroke-width="none" transform="translate(-142.67498779296875,23.835021057128905)" style="fill: rgb(255, 255, 255);"></path></g><g class="path" style="transform: scale(0.91); transform-origin: 67.205px -9.11498px; animation: 1s linear -0.375s infinite normal forwards running breath-564af92c-530f-4454-b6e3-b8daa6b05f13;"><path d="M216.48-52.19L216.48 0L203.28 0L203.28-65.90L208.36-65.90L216.48-52.19" fill="#ffd80e" stroke="none" stroke-width="none" transform="translate(-142.67498779296875,23.835021057128905)" style="fill: rgb(255, 255, 255);"></path></g><g class="path" style="transform: scale(0.91); transform-origin: 91.485px -32.16px; animation: 1s linear -0.25s infinite normal forwards running breath-564af92c-530f-4454-b6e3-b8daa6b05f13;"><path d="M241.37-56.02L241.37-56.02L241.37-56.02Q241.37-54.53 240.80-53.20L240.80-53.20L240.80-53.20Q240.23-51.88 239.26-50.90L239.26-50.90L239.26-50.90Q238.28-49.92 236.95-49.36L236.95-49.36L236.95-49.36Q235.63-48.79 234.14-48.79L234.14-48.79L234.14-48.79Q232.66-48.79 231.35-49.36L231.35-49.36L231.35-49.36Q230.04-49.92 229.06-50.90L229.06-50.90L229.06-50.90Q228.09-51.88 227.52-53.20L227.52-53.20L227.52-53.20Q226.95-54.53 226.95-56.02L226.95-56.02L226.95-56.02Q226.95-57.50 227.52-58.81L227.52-58.81L227.52-58.81Q228.09-60.12 229.06-61.09L229.06-61.09L229.06-61.09Q230.04-62.07 231.35-62.64L231.35-62.64L231.35-62.64Q232.66-63.20 234.14-63.20L234.14-63.20L234.14-63.20Q235.63-63.20 236.95-62.64L236.95-62.64L236.95-62.64Q238.28-62.07 239.26-61.09L239.26-61.09L239.26-61.09Q240.23-60.12 240.80-58.81L240.80-58.81L240.80-58.81Q241.37-57.50 241.37-56.02" fill="#ffd80e" stroke="none" stroke-width="none" transform="translate(-142.67498779296875,23.835021057128905)" style="fill: rgb(255, 255, 255);"></path></g><g class="path" style="transform: scale(0.91); transform-origin: 91.485px 1.29502px; animation: 1s linear -0.125s infinite normal forwards running breath-564af92c-530f-4454-b6e3-b8daa6b05f13;"><path d="M240.78-45.08L240.78 0L227.54 0L227.54-45.08L240.78-45.08" fill="#ffd80e" stroke="none" stroke-width="none" transform="translate(-142.67498779296875,23.835021057128905)" style="fill: rgb(255, 255, 255);"></path></g><g class="path" style="transform: scale(0.91); transform-origin: 126.7px 1.27502px; animation: 1s linear 0s infinite normal forwards running breath-564af92c-530f-4454-b6e3-b8daa6b05f13;"><path d="M274.38-24.88L291.72 0L278.52 0L267.46-15.82L256.17 0L247.03 0L264.02-20.78L247.03-45.12L260.23-45.12L270.94-29.80L282.58-45.12L291.72-45.12L274.38-24.88" fill="#ffd80e" stroke="none" stroke-width="none" transform="translate(-142.67498779296875,23.835021057128905)" style="fill: rgb(255, 255, 255);"></path></g></g>
</g>
</g>
<style id="breath-564af92c-530f-4454-b6e3-b8daa6b05f13" data-anikit="">@keyframes breath-564af92c-530f-4454-b6e3-b8daa6b05f13
{
  0% {
    animation-timing-function: cubic-bezier(0.9647,0.2413,-0.0705,0.7911);
    transform: scale(0.9099999999999999);
  }
  51% {
    animation-timing-function: cubic-bezier(0.9226,0.2631,-0.0308,0.7628);
    transform: scale(1.02994);
  }
  100% {
    transform: scale(0.9099999999999999);
  }
}</style></svg>